<?xml version="1.0" encoding="utf-8"?>
<!-- Generator: Adobe Illustrator 24.1.2, SVG Export Plug-In . SVG Version: 6.00 Build 0)  -->
<svg version="1.1" xmlns="http://www.w3.org/2000/svg" xmlns:xlink="http://www.w3.org/1999/xlink" x="0px" y="0px"
	 viewBox="0 0 178.06 132.71" style="enable-background:new 0 0 178.06 132.71;" xml:space="preserve">
<style type="text/css">
	.st0{display:none;}
	.st1{display:inline;fill:#3C3C3B;stroke:#1D1D1B;stroke-miterlimit:10;}
	.st2{fill:#3C3C3B;stroke:#1D1D1B;stroke-miterlimit:10;}
	.st3{fill:#7D4E24;stroke:#1D1D1B;stroke-miterlimit:10;}
	.st4{fill:#634E42;stroke:#1D1D1B;stroke-miterlimit:10;}
	.st5{fill:#CBBBA0;stroke:#1D1D1B;stroke-width:0.5;stroke-miterlimit:10;}
</style>
<g id="Слой_1" class="st0">
	<path class="st1" d="M32.64,92.33c0,0-10.58-64.42-11.7-68.29c-1.12-3.86,27.76,57.44,26.13,65.58"/>
	<path class="st1" d="M66.01,103.78c0,0,16.51-91.69,15.33-99.09s15.23,90.12,13.23,96.86"/>
	<path class="st1" d="M132.44,86.11c0,0,18.73-42.31,17.49-53.23c-1.24-10.92,7.02,41.19-0.9,52.96"/>
	<path class="st1" d="M12.35,96.81c0,0,0.12-65.29-0.35-69.28s17.97,61.21,15.03,68.98"/>
	<path class="st1" d="M46.33,109.05c0,0,16.51-91.69,15.33-99.09s15.23,90.12,13.23,96.86"/>
	<path class="st1" d="M112.75,91.37c0,0,18.73-42.31,17.49-53.23c-1.24-10.92,7.02,41.19-0.9,52.96"/>
	<path class="st1" d="M46.09,94.22c0,0-10.58-64.42-11.7-68.29c-1.12-3.86,27.76,57.44,26.13,65.58"/>
	<path class="st1" d="M79.45,105.68c0,0,16.51-91.69,15.33-99.09c-1.18-7.39,15.23,90.12,13.23,96.86"/>
	<path class="st1" d="M137.21,96.11c0,0,27.38-37.3,28.52-48.23s-1.99,41.73-12.26,51.53"/>
	<path class="st1" d="M58.89,100.37c0,0-10.58-64.42-11.7-68.29s27.76,57.44,26.13,65.58"/>
	<path class="st1" d="M92.26,111.83c0,0,16.51-91.69,15.33-99.09c-1.18-7.39,15.23,90.12,13.23,96.86"/>
	<path class="st1" d="M150.42,107.24c0,0,18.73-42.31,17.49-53.23c-1.24-10.92,7.02,41.19-0.9,52.96"/>
	<path class="st1" d="M28.7,110.39c0,0-10.58-64.42-11.7-68.29s27.76,57.44,26.13,65.58"/>
	<path class="st1" d="M62.07,121.85c0,0,16.51-91.69,15.33-99.09c-1.18-7.39,15.23,90.12,13.23,96.86"/>
	<path class="st1" d="M128.49,104.18c0,0,18.73-42.31,17.49-53.23c-1.24-10.92,7.02,41.19-0.9,52.96"/>
	<path class="st1" d="M23.11,111.19c0,0-10.58-64.42-11.7-68.29s27.76,57.44,26.13,65.58"/>
	<path class="st1" d="M122.9,104.98c0,0,18.73-42.31,17.49-53.23c-1.24-10.92,7.02,41.19-0.9,52.96"/>
	<path class="st1" d="M109.71,115.78c0,0,18.73-42.31,17.49-53.23s7.02,41.19-0.9,52.96"/>
	<path class="st1" d="M136.9,118.16c0,0,18.73-42.31,17.49-53.23c-1.24-10.92,7.02,41.19-0.9,52.96"/>
	<path class="st1" d="M165.46,116.64c7.93-11.78-0.33-63.89,0.9-52.96s-17.49,53.23-17.49,53.23"/>
</g>
<g id="Слой_1__x28_копия_x29_" class="st0">
	<path class="st1" d="M35.9,97.45c0,0-10.58-64.42-11.7-68.29C23.08,25.3,51.96,86.6,50.33,94.75"/>
	<path class="st1" d="M66.01,103.78c0,0,16.51-91.69,15.33-99.09s15.23,90.12,13.23,96.86"/>
	<path class="st1" d="M130.03,91.15c0,0,27.79-37,29.04-47.92c1.26-10.92-2.45,41.71-12.83,51.39"/>
	<path class="st1" d="M31.43,115.96c1.18-8.22-31.07-67.82-29.74-64.03c1.34,3.8,15.48,67.53,15.48,67.53s5.99,8.67,16.6,9.91
		c10.61,1.24,117.08,4.68,125.5-1.81l8.02-15.24"/>
	<path class="st1" d="M46.33,109.05c0,0,16.51-91.69,15.33-99.09s15.23,90.12,13.23,96.86"/>
	<path class="st1" d="M112.75,91.37c0,0,18.73-42.31,17.49-53.23c-1.24-10.92,7.02,41.19-0.9,52.96"/>
	<path class="st1" d="M104.8,90.09c0,0,18.73-42.31,17.49-53.23s7.02,41.19-0.9,52.96"/>
	<path class="st1" d="M46.09,94.22c0,0-10.58-64.42-11.7-68.29c-1.12-3.86,27.76,57.44,26.13,65.58"/>
	<path class="st1" d="M79.45,105.68c0,0,16.51-91.69,15.33-99.09c-1.18-7.39,15.23,90.12,13.23,96.86"/>
	<path class="st1" d="M56.64,111.35c0,0-10.58-64.42-11.7-68.29s27.76,57.44,26.13,65.58"/>
	<path class="st1" d="M92.26,111.83c0,0,16.51-91.69,15.33-99.09c-1.18-7.39,15.23,90.12,13.23,96.86"/>
	<path class="st1" d="M147.68,112.26c0,0,18.73-42.31,17.49-53.23c-1.24-10.92,7.02,41.19-0.9,52.96"/>
	<path class="st1" d="M28.7,110.39c0,0-10.58-64.42-11.7-68.29s27.76,57.44,26.13,65.58"/>
	<path class="st1" d="M62.07,121.85c0,0,16.51-91.69,15.33-99.09c-1.18-7.39,15.23,90.12,13.23,96.86"/>
	<path class="st1" d="M26.58,122.16c0,0-10.58-64.42-11.7-68.29s27.76,57.44,26.13,65.58"/>
	<path class="st1" d="M39.17,121.96c0,0-10.58-64.42-11.7-68.29s27.76,57.44,26.13,65.58"/>
	<path class="st1" d="M51.8,124.75c0,0-10.58-64.42-11.7-68.29s27.76,57.44,26.13,65.58"/>
	<path class="st1" d="M84.92,125.47c0,0,16.51-91.69,15.33-99.09c-1.18-7.39,15.23,90.12,13.23,96.86"/>
	<path class="st1" d="M122.9,104.98c0,0,18.73-42.31,17.49-53.23c-1.24-10.92,7.02,41.19-0.9,52.96"/>
	<path class="st1" d="M113.15,115.72c0,0,18.73-42.31,17.49-53.23c-1.24-10.92,7.02,41.19-0.9,52.96"/>
	<path class="st1" d="M123.71,120.18c0,0,18.73-42.31,17.49-53.23s7.02,41.19-0.9,52.96"/>
	<path class="st1" d="M145.38,118.98c0,0,28.8-36.21,30.37-47.09c1.56-10.88-3.6,41.62-14.25,51.02"/>
</g>
<g id="Слой_4" class="st0">
</g>
<g id="Слой_3">
	<path class="st2" d="M129.35,123.07"/>
	<path class="st3" d="M80.14,80.97c0,0,10.54,4.99,13.96,1.37c3.16-3.34-1.71-52.68-2.49-60.36c-0.03-0.29-0.35-0.33-0.43-0.06
		c-0.24,0.77-0.87,1.73-2.94,1.68c-8.35-0.2-11.41-1.98-11.41-1.98S78.12,80.12,80.14,80.97z"/>
	<path class="st4" d="M94.61,31.6"/>
	<path class="st5" d="M76.49,20.58c0.87-1.57,5.76-10.54,6.75-14.12c0.09-0.32,0.45-0.37,0.6-0.07c1.63,3.27,6.27,14.78,7.67,14.91
		l0.34,0.54l-0.37,0.6c0,0-8.1,4.33-14.92-1.45C76.45,20.9,76.42,20.72,76.49,20.58z"/>
	<path class="st3" d="M65.35,87.58c0,0,10.54,4.99,13.96,1.37c3.16-3.34-1.71-52.68-2.49-60.36c-0.03-0.29-0.35-0.33-0.43-0.06
		c-0.24,0.77-0.87,1.73-2.94,1.68c-8.35-0.2-11.41-1.98-11.41-1.98S63.32,86.73,65.35,87.58z"/>
	<path class="st4" d="M79.81,38.2"/>
	<path class="st5" d="M61.69,27.19c0.87-1.57,5.76-10.54,6.75-14.12c0.09-0.32,0.45-0.37,0.6-0.07c1.63,3.27,6.27,14.78,7.67,14.91
		l0.34,0.54l-0.37,0.6c0,0-8.1,4.33-14.92-1.45C61.65,27.5,61.62,27.32,61.69,27.19z"/>
	<path class="st3" d="M54.88,91.27c0,0,10.09,3.47,12.76-0.29c2.47-3.46-7.58-48.88-9.16-55.94c-0.06-0.27-0.35-0.27-0.4,0
		c-0.13,0.75-0.59,1.71-2.46,1.89c-7.56,0.76-10.52-0.56-10.52-0.56S52.95,90.7,54.88,91.27z"/>
	<path class="st4" d="M58.23,33.93"/>
	<path class="st5" d="M44.66,35.42c0.6-1.56,3.99-10.46,4.48-13.91c0.04-0.31,0.37-0.39,0.53-0.13c1.84,2.86,7.36,13.06,8.63,13.02
		l0.37,0.47l-0.26,0.6c0,0-6.81,4.94-13.63,0.32C44.66,35.72,44.61,35.56,44.66,35.42z"/>
	<path class="st3" d="M41.36,100.69c0,0,11.12,3.17,14.07-0.71c2.73-3.58-8.28-49.09-10.01-56.16c-0.07-0.27-0.39-0.26-0.44,0.01
		c-0.14,0.76-0.66,1.74-2.72,1.99c-8.34,1.01-11.6-0.22-11.6-0.22S39.24,100.18,41.36,100.69z"/>
	<path class="st4" d="M42.48,50.68"/>
	<path class="st5" d="M30.18,44.66c0.67-1.6,4.42-10.69,4.96-14.18c0.05-0.32,0.4-0.41,0.59-0.15c2.03,2.83,8.09,12.95,9.5,12.86
		l0.4,0.46l-0.29,0.62c0,0-7.52,5.21-15.03,0.77C30.18,44.96,30.13,44.8,30.18,44.66z"/>
	<path class="st3" d="M68.19,105.92c0,0,8.69,3.18,10.56-0.63c1.72-3.51-10.87-48.4-12.85-55.38c-0.08-0.27-0.32-0.26-0.33,0.01
		c-0.04,0.75-0.33,1.71-1.86,1.95c-6.2,0.95-8.78-0.28-8.78-0.28S66.54,105.41,68.19,105.92z"/>
	<path class="st4" d="M69.95,56.84"/>
	<path class="st5" d="M54.48,50.66c0.35-1.57,2.33-10.51,2.41-13.95c0.01-0.31,0.27-0.4,0.43-0.15c1.8,2.8,7.33,12.8,8.38,12.72
		l0.35,0.46l-0.16,0.61c0,0-5.19,5.1-11.28,0.68C54.51,50.96,54.45,50.79,54.48,50.66z"/>
	<path class="st3" d="M101.27,88.29c0,0,10.54,4.99,13.96,1.37c3.16-3.34-1.71-52.68-2.49-60.36c-0.03-0.29-0.35-0.33-0.43-0.06
		c-0.24,0.77-0.87,1.73-2.94,1.68c-8.35-0.2-11.41-1.98-11.41-1.98S99.24,87.44,101.27,88.29z"/>
	<path class="st4" d="M115.73,38.91"/>
	<path class="st5" d="M97.61,27.89c0.87-1.57,5.76-10.54,6.75-14.12c0.09-0.32,0.45-0.37,0.6-0.07c1.63,3.27,6.27,14.78,7.67,14.91
		l0.34,0.54l-0.37,0.6c0,0-8.1,4.33-14.92-1.45C97.57,28.21,97.54,28.03,97.61,27.89z"/>
	<path class="st3" d="M89.14,96.47c0,0,10.54,4.99,13.96,1.37c3.16-3.34-1.71-52.68-2.49-60.36c-0.03-0.29-0.35-0.33-0.43-0.06
		c-0.24,0.77-0.87,1.73-2.94,1.68c-8.35-0.2-11.41-1.98-11.41-1.98S87.12,95.62,89.14,96.47z"/>
	<path class="st4" d="M103.61,47.1"/>
	<path class="st5" d="M85.49,36.08c0.87-1.57,5.76-10.54,6.75-14.12c0.09-0.32,0.45-0.37,0.6-0.07c1.63,3.27,6.27,14.78,7.67,14.91
		l0.34,0.54l-0.37,0.6c0,0-8.1,4.33-14.92-1.45C85.45,36.4,85.41,36.22,85.49,36.08z"/>
	<path class="st3" d="M112.9,94.74c0,0,9.68,6.55,13.6,3.5c3.61-2.82,6.1-52.34,6.47-60.05c0.01-0.29-0.29-0.38-0.42-0.12
		c-0.35,0.73-1.12,1.57-3.15,1.21c-8.22-1.47-10.98-3.7-10.98-3.7S111.02,93.59,112.9,94.74z"/>
	<path class="st4" d="M132.63,44.47"/>
	<path class="st5" d="M118.22,34.47c1.09-1.42,7.26-9.54,8.76-12.92c0.14-0.31,0.5-0.29,0.6,0.02c1.13,3.48,4.02,15.57,5.38,15.91
		l0.25,0.59l-0.45,0.54c0,0-8.65,3.04-14.53-3.72C118.13,34.78,118.13,34.6,118.22,34.47z"/>
	<path class="st3" d="M128.91,100.39c0,0,9.46,6.87,13.48,3.95c3.7-2.69,7.79-52.11,8.41-59.8c0.02-0.29-0.28-0.39-0.41-0.13
		c-0.38,0.72-1.17,1.53-3.19,1.1c-8.17-1.75-10.86-4.07-10.86-4.07S127.07,99.17,128.91,100.39z"/>
	<path class="st4" d="M147.63,53.75"/>
	<path class="st5" d="M136.18,40.33c1.13-1.38,7.56-9.29,9.17-12.62c0.15-0.3,0.51-0.27,0.6,0.04c1.01,3.52,3.51,15.7,4.86,16.08
		l0.23,0.6l-0.47,0.53c0,0-8.74,2.75-14.4-4.21C136.08,40.64,136.08,40.45,136.18,40.33z"/>
	<path class="st3" d="M142.46,98.82c0,0,7.26,6.24,10.71,4.08c3.18-1.99,9.64-42.45,10.63-48.75c0.04-0.24-0.2-0.34-0.33-0.14
		c-0.35,0.57-1.05,1.19-2.66,0.71c-6.54-1.94-8.57-4.02-8.57-4.02S141.04,97.7,142.46,98.82z"/>
	<path class="st4" d="M164.38,50.74"/>
	<path class="st5" d="M152.18,49.79c1.01-1.07,6.74-7.19,8.26-9.83c0.14-0.24,0.43-0.2,0.49,0.07c0.6,2.96,1.86,13.15,2.94,13.55
		l0.15,0.51l-0.42,0.4c0,0-7.28,1.73-11.45-4.35C152.08,50.03,152.09,49.88,152.18,49.79z"/>
	<path class="st3" d="M152.21,109.4c0,0,6.29,6.26,9.59,4.37c3.04-1.74,11.44-39.84,12.73-45.77c0.05-0.23-0.17-0.33-0.29-0.14
		c-0.36,0.52-1.04,1.08-2.49,0.55c-5.89-2.15-7.63-4.21-7.63-4.21S150.97,108.28,152.21,109.4z"/>
	<path class="st4" d="M174.94,61.9"/>
	<path class="st5" d="M164.12,63.32c0.99-0.97,6.63-6.51,8.19-8.95c0.14-0.22,0.41-0.17,0.44,0.09c0.37,2.84,0.91,12.57,1.87,13
		l0.11,0.49l-0.41,0.36c0,0-6.8,1.3-10.25-4.66C164.02,63.54,164.03,63.4,164.12,63.32z"/>
	<path class="st3" d="M129.11,116.9c0,0,4.8,6.11,7.5,3.55c2.49-2.36,10.55-45.92,11.8-52.69c0.05-0.26-0.12-0.34-0.23-0.12
		c-0.3,0.63-0.87,1.35-2.01,0.96c-4.62-1.58-5.94-3.64-5.94-3.64S128.16,115.82,129.11,116.9z"/>
	<path class="st4" d="M157.47,78.74"/>
	<path class="st5" d="M140.26,63.98c0.83-1.21,5.52-8.15,6.86-11.08c0.12-0.26,0.33-0.24,0.35,0.04c0.2,3.11,0.28,13.86,1.03,14.21
		l0.07,0.53l-0.34,0.46c0,0-5.47,2.38-8.02-3.78C140.17,64.25,140.19,64.08,140.26,63.98z"/>
	<path class="st3" d="M119.64,115.81c0,0,7.77,6.06,11.01,3.15c2.99-2.68,5.9-49.26,6.34-56.51c0.02-0.28-0.23-0.35-0.34-0.11
		c-0.3,0.69-0.94,1.49-2.59,1.17c-6.67-1.3-8.88-3.37-8.88-3.37S118.13,114.74,119.64,115.81z"/>
	<path class="st4" d="M141.54,84.64"/>
	<path class="st5" d="M125.04,59.1c0.91-1.35,6.08-9.04,7.36-12.24c0.12-0.29,0.41-0.28,0.49,0.02c0.86,3.26,2.99,14.6,4.1,14.9
		l0.2,0.55l-0.38,0.51c0,0-7.09,2.95-11.77-3.35C124.97,59.39,124.96,59.22,125.04,59.1z"/>
	<path class="st3" d="M108.57,112.73c0,0,9.37,5.07,12.58,1.78c2.96-3.03,0.15-49.63-0.3-56.87c-0.02-0.28-0.3-0.32-0.39-0.07
		c-0.24,0.72-0.85,1.59-2.71,1.47c-7.54-0.48-10.25-2.26-10.25-2.26S106.77,111.86,108.57,112.73z"/>
	<path class="st4" d="M123.91,73.15"/>
	<path class="st5" d="M107.21,55.78c0.83-1.45,5.55-9.71,6.56-13.04c0.09-0.3,0.42-0.33,0.54-0.04c1.37,3.13,5.19,14.13,6.45,14.29
		l0.29,0.52l-0.35,0.56c0,0-7.46,3.79-13.44-1.89C107.17,56.08,107.14,55.91,107.21,55.78z"/>
	<path class="st3" d="M89.38,115.18c0,0,9.07,5.5,12.36,2.25c3.02-2.99,1.83-50.69,1.63-58.11c-0.01-0.28-0.29-0.34-0.38-0.08
		c-0.26,0.73-0.89,1.6-2.72,1.41c-7.43-0.75-10.04-2.67-10.04-2.67S87.63,114.23,89.38,115.18z"/>
	<path class="st4" d="M107.42,81.26"/>
	<path class="st5" d="M89.97,56.96c0.87-1.45,5.81-9.73,6.91-13.1c0.1-0.3,0.43-0.32,0.54-0.03c1.24,3.25,4.65,14.61,5.89,14.82
		l0.27,0.54l-0.37,0.56c0,0-7.49,3.62-13.2-2.4C89.92,57.26,89.9,57.08,89.97,56.96z"/>
	<path class="st3" d="M80.15,115.06c0,0,10.14,3.94,12.85,0.01c2.5-3.63-7.37-52.23-8.92-59.79c-0.06-0.29-0.35-0.29-0.4-0.01
		c-0.13,0.79-0.6,1.8-2.49,1.95c-7.61,0.62-10.59-0.86-10.59-0.86S78.21,114.41,80.15,115.06z"/>
	<path class="st4" d="M89.43,77.37"/>
	<path class="st5" d="M70.16,55.34c0.61-1.65,4.08-11.04,4.58-14.7c0.05-0.33,0.37-0.41,0.54-0.13c1.84,3.09,7.34,14.09,8.62,14.08
		l0.37,0.51L84,55.74c0,0-6.89,5.1-13.73,0C70.16,55.66,70.11,55.48,70.16,55.34z"/>
	<path class="st3" d="M65.4,125.26c0,0,9.72,4.18,12.35,0.27c2.43-3.6-6.74-52.73-8.18-60.37c-0.06-0.29-0.34-0.3-0.38-0.02
		c-0.13,0.8-0.59,1.8-2.4,1.91c-7.32,0.46-10.17-1.09-10.17-1.09S63.54,124.57,65.4,125.26z"/>
	<path class="st4" d="M71.43,81.2"/>
	<path class="st5" d="M56.19,64.95c0.6-1.65,3.99-11.03,4.5-14.7c0.05-0.33,0.36-0.4,0.52-0.12c1.75,3.15,6.96,14.34,8.19,14.35
		L69.75,65l-0.26,0.64c0,0-6.65,4.99-13.19-0.28C56.19,65.27,56.14,65.09,56.19,64.95z"/>
	<path class="st3" d="M52.32,112.48c0,0,8.49,3,10.34-0.64c1.71-3.36-10.26-46.16-12.14-52.82c-0.07-0.25-0.31-0.24-0.32,0.01
		c-0.04,0.71-0.34,1.64-1.84,1.87c-6.08,0.93-8.6-0.23-8.6-0.23S50.71,112,52.32,112.48z"/>
	<path class="st4" d="M56.03,80.61"/>
	<path class="st5" d="M39.33,59.78c0.36-1.5,2.37-10.05,2.47-13.33c0.01-0.3,0.27-0.38,0.42-0.14c1.74,2.66,7.07,12.18,8.11,12.11
		l0.34,0.43l-0.16,0.58c0,0-5.12,4.89-11.05,0.7C39.35,60.07,39.29,59.91,39.33,59.78z"/>
	<path class="st3" d="M26.37,109.49c0,0,11.12,3.45,14.01-0.61c2.67-3.75-8.88-51.93-10.7-59.42c-0.07-0.29-0.39-0.28-0.43,0.01
		c-0.13,0.8-0.63,1.83-2.68,2.08C18.27,52.53,15,51.19,15,51.19S24.25,108.94,26.37,109.49z"/>
	<path class="st4" d="M30.56,59.67"/>
	<path class="st5" d="M14.51,50.2c0.64-1.68,4.27-11.25,4.76-14.93c0.04-0.33,0.4-0.43,0.58-0.15c2.06,3.01,8.23,13.75,9.63,13.68
		l0.41,0.49l-0.28,0.65c0,0-7.43,5.43-14.97,0.67C14.51,50.52,14.45,50.35,14.51,50.2z"/>
	<path class="st3" d="M22.91,115.08c0,0,9.65,2,11.4-2.02c1.62-3.71-15.22-46.52-17.85-53.18c-0.1-0.25-0.36-0.21-0.36,0.05
		c0.01,0.75-0.24,1.74-1.88,2.18c-6.65,1.77-9.54,0.89-9.54,0.89S21.08,114.79,22.91,115.08z"/>
	<path class="st4" d="M20.21,67.33"/>
	<path class="st5" d="M4.12,62.14C4.39,60.54,5.9,51.41,5.74,48C5.73,47.69,6,47.56,6.2,47.79c2.15,2.53,8.85,11.71,9.99,11.49
		l0.41,0.4l-0.13,0.62c0,0-5.26,5.74-12.17,2.17C4.17,62.43,4.1,62.28,4.12,62.14z"/>
	<path class="st3" d="M39.69,120.63c0,0,9.18,2.62,11.03-1.26c1.7-3.58-12.75-47.29-15.01-54.09c-0.09-0.26-0.34-0.24-0.34,0.03
		c-0.02,0.74-0.3,1.72-1.89,2.04c-6.46,1.32-9.19,0.26-9.19,0.26S37.94,120.22,39.69,120.63z"/>
	<path class="st4" d="M40.71,72.44"/>
	<path class="st5" d="M23.77,66.71c0.32-1.57,2.14-10.56,2.12-13.96c0-0.31,0.27-0.41,0.45-0.17c1.96,2.66,8.03,12.23,9.13,12.09
		l0.38,0.43l-0.15,0.61c0,0-5.28,5.37-11.78,1.36C23.81,67.01,23.74,66.85,23.77,66.71z"/>
	<path class="st3" d="M32.53,126.99c0,0,7.58,2.53,9.39-0.5c1.67-2.79-7.6-38.5-9.06-44.05c-0.06-0.21-0.27-0.2-0.29,0.01
		c-0.06,0.59-0.37,1.36-1.73,1.55c-5.54,0.76-7.78-0.22-7.78-0.22S31.09,126.59,32.53,126.99z"/>
	<path class="st4" d="M34.73,87.03"/>
	<path class="st5" d="M22.7,83.04c0.38-1.25,2.51-8.36,2.72-11.09c0.02-0.25,0.25-0.32,0.39-0.12c1.48,2.22,5.96,10.18,6.9,10.12
		L33,82.31l-0.17,0.48c0,0-4.82,4.06-10.03,0.54C22.71,83.28,22.66,83.15,22.7,83.04z"/>
	<path class="st3" d="M44.98,129.31c0,0,7.99,2.67,10.12-0.26c1.96-2.71-5.92-38.09-7.16-43.59c-0.05-0.21-0.28-0.21-0.31,0
		c-0.1,0.58-0.47,1.33-1.95,1.48c-5.99,0.61-8.34-0.41-8.34-0.41S43.46,128.88,44.98,129.31z"/>
	<path class="st5" d="M36.99,85.8c0.48-1.22,3.19-8.17,3.57-10.85c0.04-0.24,0.29-0.31,0.42-0.1c1.46,2.23,5.81,10.16,6.82,10.13
		l0.29,0.36l-0.21,0.47c0,0-5.41,3.87-10.81,0.29C36.99,86.04,36.94,85.91,36.99,85.8z"/>
	<path class="st3" d="M56.36,129.34c0,0,7.63,3.71,9.87,0.67c2.07-2.8-3.56-42.63-4.45-48.82c-0.03-0.24-0.26-0.26-0.31-0.03
		c-0.14,0.63-0.54,1.43-1.99,1.45c-5.87,0.1-8.1-1.25-8.1-1.25S54.9,128.72,56.36,129.34z"/>
	<path class="st5" d="M51.09,80.53c0.54-1.3,3.58-8.72,4.11-11.65c0.05-0.26,0.3-0.31,0.42-0.08c1.29,2.6,5.07,11.78,6.06,11.84
		l0.26,0.43l-0.23,0.5c0,0-5.49,3.76-10.55-0.71C51.07,80.79,51.04,80.64,51.09,80.53z"/>
	<path class="st3" d="M72.25,129.57c0,0,7.71,3.51,9.96,0.53c2.07-2.75-3.8-41.32-4.72-47.32c-0.04-0.23-0.26-0.24-0.31-0.03
		c-0.13,0.62-0.53,1.39-2,1.43C69.25,84.36,67,83.08,67,83.08S70.77,128.98,72.25,129.57z"/>
	<path class="st5" d="M66.7,82.26c0.54-1.27,3.57-8.51,4.09-11.36c0.05-0.26,0.3-0.3,0.42-0.08c1.31,2.5,5.17,11.37,6.17,11.41
		l0.27,0.41l-0.23,0.49c0,0-5.53,3.72-10.64-0.56C66.68,82.51,66.65,82.37,66.7,82.26z"/>
	<path class="st3" d="M108.74,127.57c0,0,7.89,3.88,10.6,1.38c2.5-2.3,0.26-37.83-0.11-43.36c-0.01-0.21-0.25-0.25-0.33-0.05
		c-0.21,0.55-0.72,1.21-2.29,1.12c-6.36-0.38-8.64-1.75-8.64-1.75S107.22,126.9,108.74,127.57z"/>
	<path class="st5" d="M107.75,84.15c0.71-1.1,4.71-7.4,5.56-9.93c0.08-0.23,0.36-0.25,0.46-0.03c1.14,2.39,4.34,10.78,5.41,10.91
		l0.24,0.4l-0.3,0.42c0,0-6.3,2.88-11.33-1.47C107.71,84.37,107.69,84.24,107.75,84.15z"/>
	<path class="st3" d="M95.62,128.86c0,0,7.89,3.88,10.6,1.38c2.5-2.3,0.26-37.83-0.11-43.36c-0.01-0.21-0.25-0.25-0.33-0.05
		c-0.21,0.55-0.72,1.21-2.29,1.12c-6.36-0.38-8.64-1.75-8.64-1.75S94.1,128.19,95.62,128.86z"/>
	<path class="st5" d="M94.62,85.44c0.71-1.1,4.71-7.4,5.56-9.93c0.08-0.23,0.36-0.25,0.46-0.03c1.14,2.39,4.34,10.78,5.41,10.91
		l0.24,0.4l-0.3,0.42c0,0-6.3,2.88-11.33-1.47C94.58,85.66,94.56,85.53,94.62,85.44z"/>
	<path class="st3" d="M83.83,129.17c0,0,7.89,3.88,10.6,1.38c2.5-2.3,0.26-37.83-0.11-43.36c-0.01-0.21-0.25-0.25-0.33-0.05
		c-0.21,0.55-0.72,1.21-2.29,1.12c-6.36-0.38-8.64-1.75-8.64-1.75S82.31,128.51,83.83,129.17z"/>
	<path class="st5" d="M82.84,85.75c0.71-1.1,4.71-7.4,5.56-9.93c0.08-0.23,0.36-0.25,0.46-0.03c1.14,2.39,4.34,10.78,5.41,10.91
		l0.24,0.4l-0.3,0.42c0,0-6.3,2.88-11.33-1.47C82.8,85.98,82.78,85.85,82.84,85.75z"/>
	<path class="st3" d="M119.95,128.31c0,0,7.06,4.53,9.67,1.96c2.41-2.37,2.08-40.71,2.01-46.68c0-0.23-0.22-0.28-0.3-0.07
		c-0.22,0.58-0.72,1.27-2.16,1.1c-5.82-0.69-7.85-2.26-7.85-2.26S118.58,127.52,119.95,128.31z"/>
	<path class="st5" d="M121.15,81.53c0.7-1.16,4.68-7.75,5.6-10.44c0.08-0.24,0.34-0.25,0.42-0.02c0.94,2.62,3.47,11.8,4.44,11.98
		l0.2,0.44l-0.3,0.44c0,0-5.93,2.82-10.34-2.08C121.1,81.77,121.09,81.63,121.15,81.53z"/>
	<path class="st3" d="M130.81,125.82c0,0,7.31,4.78,10.2,2.44c2.67-2.16,3.92-39.3,4.1-45.08c0.01-0.22-0.22-0.28-0.31-0.09
		c-0.26,0.55-0.82,1.19-2.34,0.95c-6.16-1-8.25-2.63-8.25-2.63S129.39,124.99,130.81,125.82z"/>
	<path class="st5" d="M134.05,80.6c0.8-1.08,5.3-7.24,6.39-9.8c0.1-0.23,0.37-0.23,0.45,0.01c0.88,2.59,3.19,11.62,4.21,11.85
		l0.2,0.44l-0.33,0.41c0,0-6.42,2.39-10.9-2.6C133.99,80.83,133.98,80.69,134.05,80.6z"/>
	<path class="st3" d="M140.76,122.22c0,0,7.78,5.81,11.28,3.95c3.23-1.72,8.44-38.05,9.24-43.71c0.03-0.22-0.22-0.31-0.35-0.13
		c-0.34,0.5-1.05,1.05-2.74,0.57c-6.86-1.92-9.05-3.84-9.05-3.84S139.24,121.18,140.76,122.22z"/>
	<path class="st5" d="M149.04,78.23c1.01-0.94,6.73-6.31,8.22-8.66c0.13-0.21,0.44-0.17,0.51,0.08c0.73,2.69,2.42,11.91,3.55,12.3
		l0.18,0.46l-0.42,0.35c0,0-7.5,1.38-12.06-4.21C148.95,78.45,148.95,78.31,149.04,78.23z"/>
</g>
</svg>
