<?xml version="1.0" encoding="utf-8"?>
<!-- Generator: Adobe Illustrator 24.1.2, SVG Export Plug-In . SVG Version: 6.00 Build 0)  -->
<svg version="1.1" xmlns="http://www.w3.org/2000/svg" xmlns:xlink="http://www.w3.org/1999/xlink" x="0px" y="0px"
	 viewBox="0 0 178.06 132.71" style="enable-background:new 0 0 178.06 132.71;" xml:space="preserve">
<style type="text/css">
	.st0{fill:#3C3C3B;stroke:#1D1D1B;stroke-miterlimit:10;}
</style>
<g id="Слой_1">
	<path class="st0" d="M32.64,92.33c0,0-10.58-64.42-11.7-68.29c-1.12-3.86,27.76,57.44,26.13,65.58"/>
	<path class="st0" d="M66.01,103.78c0,0,16.51-91.69,15.33-99.09s15.23,90.12,13.23,96.86"/>
	<path class="st0" d="M132.44,86.11c0,0,18.73-42.31,17.49-53.23c-1.24-10.92,7.02,41.19-0.9,52.96"/>
	<path class="st0" d="M12.35,96.81c0,0,0.12-65.29-0.35-69.28s17.97,61.21,15.03,68.98"/>
	<path class="st0" d="M46.33,109.05c0,0,16.51-91.69,15.33-99.09s15.23,90.12,13.23,96.86"/>
	<path class="st0" d="M112.75,91.37c0,0,18.73-42.31,17.49-53.23c-1.24-10.92,7.02,41.19-0.9,52.96"/>
	<path class="st0" d="M46.09,94.22c0,0-10.58-64.42-11.7-68.29c-1.12-3.86,27.76,57.44,26.13,65.58"/>
	<path class="st0" d="M79.45,105.68c0,0,16.51-91.69,15.33-99.09c-1.18-7.39,15.23,90.12,13.23,96.86"/>
	<path class="st0" d="M137.21,96.11c0,0,27.38-37.3,28.52-48.23s-1.99,41.73-12.26,51.53"/>
	<path class="st0" d="M58.89,100.37c0,0-10.58-64.42-11.7-68.29s27.76,57.44,26.13,65.58"/>
	<path class="st0" d="M92.26,111.83c0,0,16.51-91.69,15.33-99.09c-1.18-7.39,15.23,90.12,13.23,96.86"/>
	<path class="st0" d="M150.42,107.24c0,0,18.73-42.31,17.49-53.23c-1.24-10.92,7.02,41.19-0.9,52.96"/>
	<path class="st0" d="M28.7,110.39c0,0-10.58-64.42-11.7-68.29s27.76,57.44,26.13,65.58"/>
	<path class="st0" d="M62.07,121.85c0,0,16.51-91.69,15.33-99.09c-1.18-7.39,15.23,90.12,13.23,96.86"/>
	<path class="st0" d="M128.49,104.18c0,0,18.73-42.31,17.49-53.23c-1.24-10.92,7.02,41.19-0.9,52.96"/>
	<path class="st0" d="M23.11,111.19c0,0-10.58-64.42-11.7-68.29s27.76,57.44,26.13,65.58"/>
	<path class="st0" d="M122.9,104.98c0,0,18.73-42.31,17.49-53.23c-1.24-10.92,7.02,41.19-0.9,52.96"/>
	<path class="st0" d="M109.71,115.78c0,0,18.73-42.31,17.49-53.23s7.02,41.19-0.9,52.96"/>
	<path class="st0" d="M136.9,118.16c0,0,18.73-42.31,17.49-53.23c-1.24-10.92,7.02,41.19-0.9,52.96"/>
	<path class="st0" d="M165.46,116.64c7.93-11.78-0.33-63.89,0.9-52.96s-17.49,53.23-17.49,53.23"/>
</g>
<g id="Слой_1__x28_копия_x29_">
	<path class="st0" d="M35.9,97.45c0,0-10.58-64.42-11.7-68.29C23.08,25.3,51.96,86.6,50.33,94.75"/>
	<path class="st0" d="M66.01,103.78c0,0,16.51-91.69,15.33-99.09s15.23,90.12,13.23,96.86"/>
	<path class="st0" d="M130.03,91.15c0,0,27.79-37,29.04-47.92c1.26-10.92-2.45,41.71-12.83,51.39"/>
	<path class="st0" d="M31.43,115.96c1.18-8.22-31.07-67.82-29.74-64.03c1.34,3.8,15.48,67.53,15.48,67.53s5.99,8.67,16.6,9.91
		c10.61,1.24,117.08,4.68,125.5-1.81l8.02-15.24"/>
	<path class="st0" d="M46.33,109.05c0,0,16.51-91.69,15.33-99.09s15.23,90.12,13.23,96.86"/>
	<path class="st0" d="M112.75,91.37c0,0,18.73-42.31,17.49-53.23c-1.24-10.92,7.02,41.19-0.9,52.96"/>
	<path class="st0" d="M104.8,90.09c0,0,18.73-42.31,17.49-53.23s7.02,41.19-0.9,52.96"/>
	<path class="st0" d="M46.09,94.22c0,0-10.58-64.42-11.7-68.29c-1.12-3.86,27.76,57.44,26.13,65.58"/>
	<path class="st0" d="M79.45,105.68c0,0,16.51-91.69,15.33-99.09c-1.18-7.39,15.23,90.12,13.23,96.86"/>
	<path class="st0" d="M56.64,111.35c0,0-10.58-64.42-11.7-68.29s27.76,57.44,26.13,65.58"/>
	<path class="st0" d="M92.26,111.83c0,0,16.51-91.69,15.33-99.09c-1.18-7.39,15.23,90.12,13.23,96.86"/>
	<path class="st0" d="M147.68,112.26c0,0,18.73-42.31,17.49-53.23c-1.24-10.92,7.02,41.19-0.9,52.96"/>
	<path class="st0" d="M28.7,110.39c0,0-10.58-64.42-11.7-68.29s27.76,57.44,26.13,65.58"/>
	<path class="st0" d="M62.07,121.85c0,0,16.51-91.69,15.33-99.09c-1.18-7.39,15.23,90.12,13.23,96.86"/>
	<path class="st0" d="M26.58,122.16c0,0-10.58-64.42-11.7-68.29s27.76,57.44,26.13,65.58"/>
	<path class="st0" d="M39.17,121.96c0,0-10.58-64.42-11.7-68.29s27.76,57.44,26.13,65.58"/>
	<path class="st0" d="M51.8,124.75c0,0-10.58-64.42-11.7-68.29s27.76,57.44,26.13,65.58"/>
	<path class="st0" d="M84.92,125.47c0,0,16.51-91.69,15.33-99.09c-1.18-7.39,15.23,90.12,13.23,96.86"/>
	<path class="st0" d="M122.9,104.98c0,0,18.73-42.31,17.49-53.23c-1.24-10.92,7.02,41.19-0.9,52.96"/>
	<path class="st0" d="M113.15,115.72c0,0,18.73-42.31,17.49-53.23c-1.24-10.92,7.02,41.19-0.9,52.96"/>
	<path class="st0" d="M123.71,120.18c0,0,18.73-42.31,17.49-53.23s7.02,41.19-0.9,52.96"/>
	<path class="st0" d="M145.38,118.98c0,0,28.8-36.21,30.37-47.09c1.56-10.88-3.6,41.62-14.25,51.02"/>
</g>
<g id="Слой_3">
	<path class="st0" d="M124.83,117.65"/>
</g>
</svg>
